name analog
datacolumns 19
datarows 28
range 0.17450000000000002 0.188
endheader
time	ground_force_vx	ground_force_vy	ground_force_vz	ground_force_px	ground_force_py	ground_force_pz	l_ground_force_vx	l_ground_force_vy	l_ground_force_vz	l_ground_force_px	l_ground_force_py	l_ground_force_pz	ground_torque_x	ground_torque_y	ground_torque_z	l_ground_torque_x	l_ground_torque_y	l_ground_torque_z
0.17450000000000002	-0.0	-0.0	-0.0	-0.0	-0.0	-0.0	-0.6897903084754944	-11.266375541687012	-621.9533081054688	-0.0	-0.0	-0.0	-0.0	-0.0	-0.0	172489.65625	-4314.30224609375	790.923828125
0.17500000000000002	-0.0	-0.0	-0.0	-0.0	-0.0	-0.0	-0.9758186340332032	-11.462135314941406	-620.5971069335938	-0.0	-0.0	-0.0	-0.0	-0.0	-0.0	171846.828125	-4550.10498046875	685.278564453125
0.17550000000000002	-0.0	-0.0	-0.0	-0.0	-0.0	-0.0	-0.2362685799598693	-10.588837623596191	-618.2317504882812	-0.0	-0.0	-0.0	-0.0	-0.0	-0.0	171195.5625	-4833.11962890625	620.0872802734375
0.176	-0.0	-0.0	-0.0	-0.0	-0.0	-0.0	-0.8676185607910156	-10.48117446899414	-616.950927734375	-0.0	-0.0	-0.0	-0.0	-0.0	-0.0	170653.421875	-4518.8271484375	758.2102661132812
0.1765	-0.0	-0.0	-0.0	-0.0	-0.0	-0.0	-0.8677586913108826	-9.86313247680664	-614.23388671875	-0.0	-0.0	-0.0	-0.0	-0.0	-0.0	169986.140625	-4888.43603515625	544.3189697265625
0.177	-0.0	-0.0	-0.0	-0.0	-0.0	-0.0	-1.311467170715332	-9.333433151245115	-612.600830078125	-0.0	-0.0	-0.0	-0.0	-0.0	-0.0	169736.203125	-4757.80029296875	488.1483459472656
0.1775	-0.0	-0.0	-0.0	-0.0	-0.0	-0.0	-1.3211276531219482	-8.343098640441895	-612.9111938476562	-0.0	-0.0	-0.0	-0.0	-0.0	-0.0	168946.359375	-5036.529296875	349.7216491699219
0.178	-0.0	-0.0	-0.0	-0.0	-0.0	-0.0	-1.8025864362716677	-7.371944427490234	-612.44921875	-0.0	-0.0	-0.0	-0.0	-0.0	-0.0	169120.921875	-4851.544921875	-32.81851577758789
0.1785	-0.0	-0.0	-0.0	-0.0	-0.0	-0.0	-2.395191192626953	-6.19187068939209	-611.29052734375	-0.0	-0.0	-0.0	-0.0	-0.0	-0.0	169280.890625	-4716.49951171875	-107.97421264648438
0.179	-0.0	-0.0	-0.0	-0.0	-0.0	-0.0	-2.474578380584717	-5.290018558502197	-610.041259765625	-0.0	-0.0	-0.0	-0.0	-0.0	-0.0	169004.109375	-4810.17822265625	-527.7031860351562
0.1795	-0.0	-0.0	-0.0	-0.0	-0.0	-0.0	-3.753592014312744	-4.257852554321289	-610.7969970703125	-0.0	-0.0	-0.0	-0.0	-0.0	-0.0	169409.703125	-4880.7099609375	-642.1553344726562
0.18	-0.0	-0.0	-0.0	-0.0	-0.0	-0.0	-4.426355838775635	-3.654651880264282	-610.3170166015625	-0.0	-0.0	-0.0	-0.0	-0.0	-0.0	169817.609375	-4847.81689453125	-1042.317626953125
0.1805	-0.0	-0.0	-0.0	-0.0	-0.0	-0.0	-4.594733715057373	-2.719825029373169	-611.5079956054688	-0.0	-0.0	-0.0	-0.0	-0.0	-0.0	170599.828125	-4950.9462890625	-1267.322265625
0.181	-0.0	-0.0	-0.0	-0.0	-0.0	-0.0	-3.8580925464630127	-1.9160867929458616	-615.4476318359375	-0.0	-0.0	-0.0	-0.0	-0.0	-0.0	171621.0	-5408.85791015625	-1225.49951171875
0.1815	-0.0	-0.0	-0.0	-0.0	-0.0	-0.0	-3.3620364665985107	-1.209701418876648	-617.861083984375	-0.0	-0.0	-0.0	-0.0	-0.0	-0.0	173378.546875	-5601.7353515625	-1245.5875244140625
0.182	-0.0	-0.0	-0.0	-0.0	-0.0	-0.0	-2.9274559020996094	-0.4416084289550781	-623.5848388671875	-0.0	-0.0	-0.0	-0.0	-0.0	-0.0	174627.8125	-5791.7041015625	-1366.7401123046875
0.1825	-0.0	-0.0	-0.0	-0.0	-0.0	-0.0	-3.486220359802246	0.4767865836620331	-628.1585693359375	-0.0	-0.0	-0.0	-0.0	-0.0	-0.0	176171.21875	-6251.857421875	-1441.001220703125
0.183	-0.0	-0.0	-0.0	-0.0	-0.0	-0.0	-3.4235880374908447	1.4927440881729126	-633.5032348632812	-0.0	-0.0	-0.0	-0.0	-0.0	-0.0	177663.171875	-6520.70361328125	-1606.84423828125
0.1835	-0.0	-0.0	-0.0	-0.0	-0.0	-0.0	-3.557117223739624	2.421121120452881	-636.64013671875	-0.0	-0.0	-0.0	-0.0	-0.0	-0.0	179278.46875	-6445.3232421875	-1876.5584716796875
0.184	-0.0	-0.0	-0.0	-0.0	-0.0	-0.0	-4.054826736450195	3.0029373168945312	-641.0762939453125	-0.0	-0.0	-0.0	-0.0	-0.0	-0.0	180144.421875	-6524.15380859375	-1870.9556884765625
0.1845	-0.0	-0.0	-0.0	-0.0	-0.0	-0.0	-3.742959499359131	2.7550036907196045	-645.8632202148438	-0.0	-0.0	-0.0	-0.0	-0.0	-0.0	181964.734375	-6832.2451171875	-2048.78125
0.185	-0.0	-0.0	-0.0	-0.0	-0.0	-0.0	-4.25811767578125	2.532078981399536	-648.4412231445312	-0.0	-0.0	-0.0	-0.0	-0.0	-0.0	183487.234375	-6586.04150390625	-2203.192626953125
0.1855	-0.0	-0.0	-0.0	-0.0	-0.0	-0.0	-5.419771194458008	2.434943199157715	-652.4650268554688	-0.0	-0.0	-0.0	-0.0	-0.0	-0.0	184306.703125	-6009.35986328125	-2438.500732421875
0.186	-0.0	-0.0	-0.0	-0.0	-0.0	-0.0	-6.572934150695801	2.713074207305908	-655.9902954101562	-0.0	-0.0	-0.0	-0.0	-0.0	-0.0	184582.8125	-6155.775390625	-2884.184814453125
0.1865	-0.0	-0.0	-0.0	-0.0	-0.0	-0.0	-7.911805152893066	2.023162364959717	-655.0409545898438	-0.0	-0.0	-0.0	-0.0	-0.0	-0.0	185435.296875	-5844.7939453125	-3217.1279296875
0.187	-0.0	-0.0	-0.0	-0.0	-0.0	-0.0	-8.347016334533691	2.095220804214477	-656.88330078125	-0.0	-0.0	-0.0	-0.0	-0.0	-0.0	185541.640625	-5810.31103515625	-3470.611328125
0.1875	-0.0	-0.0	-0.0	-0.0	-0.0	-0.0	-8.943538665771484	1.7987922430038452	-658.1187744140625	-0.0	-0.0	-0.0	-0.0	-0.0	-0.0	186116.703125	-5377.7060546875	-3611.331787109375
0.188	-0.0	-0.0	-0.0	-0.0	-0.0	-0.0	-8.984003067016602	1.9992640018463133	-656.405029296875	-0.0	-0.0	-0.0	-0.0	-0.0	-0.0	186176.59375	-5216.5185546875	-3522.42333984375
